<svg id="money" xmlns="http://www.w3.org/2000/svg" width="49.827" height="49.519" viewBox="0 0 49.827 49.519">
  <g id="Group_33" data-name="Group 33" transform="translate(0 0)">
    <g id="Group_32" data-name="Group 32">
      <path id="Path_34" data-name="Path 34" d="M389.026,276a1.934,1.934,0,0,0-1.934,1.934,3.873,3.873,0,0,1-3.869,3.869h-3.288a1.934,1.934,0,0,0,0,3.869h3.288a7.746,7.746,0,0,0,7.737-7.737A1.934,1.934,0,0,0,389.026,276Z" transform="translate(-341.133 -249.306)" fill="#ac45f4"/>
      <path id="Path_35" data-name="Path 35" d="M164.768,78.878c-5.386,0-9.768,4.686-9.768,10.446a10.632,10.632,0,0,0,1.667,5.9,1.934,1.934,0,0,0,3.243-2.109,6.833,6.833,0,0,1-1.041-3.793c0-3.626,2.647-6.577,5.9-6.577s5.9,2.95,5.9,6.577a7.02,7.02,0,0,1-1.143,3.8,1.934,1.934,0,1,0,3.253,2.095,10.881,10.881,0,0,0,1.759-5.895C174.537,83.564,170.155,78.878,164.768,78.878Z" transform="translate(-139.855 -71.249)" fill="#ac45f4"/>
      <path id="Path_36" data-name="Path 36" d="M179.812,277.71a5.789,5.789,0,0,0-8.215,0l-4.022,3.975a1.934,1.934,0,0,0,2.719,2.752l3.38-3.34v15.795a1.934,1.934,0,0,0,3.869,0V280.905l3.573,3.531a1.934,1.934,0,0,0,2.719-2.752Z" transform="translate(-150.693 -249.306)" fill="#ac45f4"/>
      <circle id="Ellipse_17" data-name="Ellipse 17" cx="2.18" cy="2.18" r="2.18" transform="translate(38.3 15.886)" fill="#ac45f4"/>
      <ellipse id="Ellipse_18" data-name="Ellipse 18" cx="1.869" cy="2.18" rx="1.869" ry="2.18" transform="translate(7.524 15.886)" fill="#ac45f4"/>
      <path id="Path_37" data-name="Path 37" d="M42.041,0H7.785A7.77,7.77,0,0,0,0,7.737V28.628a7.77,7.77,0,0,0,7.785,7.737h3.5a1.934,1.934,0,1,0,0-3.869h-3.5a3.885,3.885,0,0,1-3.893-3.869V7.737A3.885,3.885,0,0,1,7.785,3.869H42.041a3.885,3.885,0,0,1,3.893,3.869V18.957a1.946,1.946,0,0,0,3.893,0V7.737A7.77,7.77,0,0,0,42.041,0Z" transform="translate(0 0)" fill="#ac45f4"/>
    </g>
  </g>
</svg>
