<svg xmlns="http://www.w3.org/2000/svg" width="39.336" height="36.311" viewBox="0 0 39.336 36.311">
  <g id="download-to-storage-drive" transform="translate(0 -18.27)">
    <g id="Group_34" data-name="Group 34" transform="translate(0 18.27)">
      <path id="Path_43" data-name="Path 43" d="M38.674,311.295a2.188,2.188,0,0,0-1.607-.662H26.1l-3.215,3.215a4.566,4.566,0,0,1-6.43,0l-3.191-3.215H2.269a2.19,2.19,0,0,0-1.607.662A2.188,2.188,0,0,0,0,312.9v7.564a2.188,2.188,0,0,0,.662,1.607,2.189,2.189,0,0,0,1.607.662h34.8a2.259,2.259,0,0,0,2.269-2.269V312.9A2.187,2.187,0,0,0,38.674,311.295Zm-8.864,7.966a1.485,1.485,0,1,1,.449-1.063A1.455,1.455,0,0,1,29.81,319.261Zm6.051,0a1.483,1.483,0,1,1,.449-1.063A1.453,1.453,0,0,1,35.861,319.261Z" transform="translate(0 -286.426)" fill="#36031e"/>
      <path id="Path_44" data-name="Path 44" d="M102.131,43.541a1.485,1.485,0,0,0,2.127,0L114.849,32.95a1.365,1.365,0,0,0,.331-1.655,1.413,1.413,0,0,0-1.395-.922h-6.052V19.783a1.534,1.534,0,0,0-1.513-1.513h-6.052a1.534,1.534,0,0,0-1.513,1.513V30.374H92.6a1.413,1.413,0,0,0-1.395.922,1.365,1.365,0,0,0,.331,1.655Z" transform="translate(-83.527 -18.27)" fill="#36031e"/>
    </g>
  </g>
</svg>
