<svg id="history" xmlns="http://www.w3.org/2000/svg" width="49" height="49" viewBox="0 0 49 49">
  <path id="Path_48" data-name="Path 48" d="M26.414,13.207v10.5l6.968,6.968a1.914,1.914,0,1,1-2.707,2.707l-7.529-7.529a1.914,1.914,0,0,1-.561-1.353V13.207a1.914,1.914,0,0,1,3.828,0ZM32.029,0H16.971A16.912,16.912,0,0,0,5.843,4.161V1.914a1.914,1.914,0,0,0-3.828,0V9.443a1.919,1.919,0,0,0,1.914,1.914h7.529a1.914,1.914,0,1,0,0-3.828H7.836a13.188,13.188,0,0,1,9.135-3.7H32.029A13.158,13.158,0,0,1,45.172,16.971V32.029A13.158,13.158,0,0,1,32.029,45.172H16.971A13.158,13.158,0,0,1,3.828,32.029V24.5A1.914,1.914,0,0,0,0,24.5v7.529A16.991,16.991,0,0,0,16.971,49H32.029A16.991,16.991,0,0,0,49,32.029V16.971A16.991,16.991,0,0,0,32.029,0Z" fill="#ac45f4"/>
</svg>
