<svg xmlns="http://www.w3.org/2000/svg" width="25" height="23.436" viewBox="0 0 25 23.436">
  <g id="home" transform="translate(0 -16.017)">
    <path id="Path_45" data-name="Path 45" d="M58.848,206.808h-16.6A2.249,2.249,0,0,1,40,204.562V192.744a.781.781,0,1,1,1.563,0v11.817a.684.684,0,0,0,.684.684h16.6a.684.684,0,0,0,.684-.684V192.744a.781.781,0,1,1,1.563,0v11.817A2.249,2.249,0,0,1,58.848,206.808Z" transform="translate(-38.047 -167.355)" fill="#b4a9cd"/>
    <path id="Path_46" data-name="Path 46" d="M24.219,28.124a.779.779,0,0,1-.552-.229L13.95,18.178a2.053,2.053,0,0,0-2.9,0L1.334,27.895a.781.781,0,1,1-1.1-1.1l9.716-9.716a3.617,3.617,0,0,1,5.11,0l9.716,9.716a.781.781,0,0,1-.552,1.334Z" transform="translate(0)" fill="#b4a9cd"/>
    <path id="Path_47" data-name="Path 47" d="M183.031,298.139h-6.25a.781.781,0,0,1-.781-.781v-6.934a2.444,2.444,0,0,1,2.441-2.441h2.93a2.444,2.444,0,0,1,2.441,2.441v6.934A.781.781,0,0,1,183.031,298.139Zm-5.469-1.562h4.688v-6.152a.88.88,0,0,0-.879-.879h-2.93a.88.88,0,0,0-.879.879Z" transform="translate(-167.406 -258.686)" fill="#b4a9cd"/>
  </g>
</svg>
