<svg xmlns="http://www.w3.org/2000/svg" width="25.115" height="25.114" viewBox="0 0 25.115 25.114">
  <g id="logout" transform="translate(0 -0.008)">
    <path id="Path_38" data-name="Path 38" d="M288.058,209.578h-9.941a.785.785,0,1,1,0-1.57h9.941a.785.785,0,0,1,0,1.57Zm0,0" transform="translate(-263.729 -197.797)" fill="#231f31"/>
    <path id="Path_39" data-name="Path 39" d="M400.789,137.39a.785.785,0,0,1-.555-1.34l3.37-3.369-3.37-3.37a.785.785,0,1,1,1.11-1.11l3.924,3.924a.785.785,0,0,1,0,1.11l-3.924,3.924A.78.78,0,0,1,400.789,137.39Zm0,0" transform="translate(-380.383 -121.685)" fill="#231f31"/>
    <path id="Path_40" data-name="Path 40" d="M8.371,25.122a2.156,2.156,0,0,1-.649-.1l-6.3-2.1A2.112,2.112,0,0,1,0,20.937V2.1A2.1,2.1,0,0,1,2.093.008a2.158,2.158,0,0,1,.649.1l6.3,2.1a2.112,2.112,0,0,1,1.425,1.99V23.029a2.1,2.1,0,0,1-2.093,2.093ZM2.093,1.578a.525.525,0,0,0-.523.523V20.937a.544.544,0,0,0,.363.5L8.2,23.53a.568.568,0,0,0,.171.023.525.525,0,0,0,.523-.523V4.194a.544.544,0,0,0-.363-.5L2.263,1.6a.568.568,0,0,0-.171-.023Zm0,0" transform="translate(0 0)" fill="#231f31"/>
    <path id="Path_41" data-name="Path 41" d="M41.318,8.38a.785.785,0,0,1-.785-.785V2.886a1.31,1.31,0,0,0-1.308-1.308H27.453a.785.785,0,0,1,0-1.57H39.225A2.88,2.88,0,0,1,42.1,2.886V7.595A.785.785,0,0,1,41.318,8.38Zm0,0" transform="translate(-25.36)" fill="#231f31"/>
    <path id="Path_42" data-name="Path 42" d="M186.3,285.711h-4.186a.785.785,0,1,1,0-1.57H186.3a1.31,1.31,0,0,0,1.308-1.308v-4.709a.785.785,0,0,1,1.57,0v4.709A2.88,2.88,0,0,1,186.3,285.711Zm0,0" transform="translate(-172.438 -263.728)" fill="#231f31"/>
  </g>
</svg>
