<svg xmlns="http://www.w3.org/2000/svg" width="12" height="13.406" viewBox="0 0 12 13.406">
  <g id="user" transform="translate(-24.165)">
    <g id="Group_27" data-name="Group 27" transform="translate(26.685)">
      <g id="Group_26" data-name="Group 26" transform="translate(0)">
        <path id="Path_28" data-name="Path 28" d="M114.272,0a3.481,3.481,0,1,0,3.481,3.481A3.49,3.49,0,0,0,114.272,0Z" transform="translate(-110.791)" fill="#ac45f4"/>
      </g>
    </g>
    <g id="Group_29" data-name="Group 29" transform="translate(24.165 7.21)">
      <g id="Group_28" data-name="Group 28" transform="translate(0)">
        <path id="Path_29" data-name="Path 29" d="M36.139,250.373a3.245,3.245,0,0,0-.35-.638A4.326,4.326,0,0,0,32.8,247.85a.641.641,0,0,0-.441.106,3.71,3.71,0,0,1-4.377,0,.57.57,0,0,0-.441-.106,4.3,4.3,0,0,0-2.994,1.885,3.741,3.741,0,0,0-.35.638.323.323,0,0,0,.015.289,6.065,6.065,0,0,0,.41.608,5.777,5.777,0,0,0,.7.79,9.111,9.111,0,0,0,.7.608,6.931,6.931,0,0,0,8.269,0,6.684,6.684,0,0,0,.7-.608,7.021,7.021,0,0,0,.7-.79,5.329,5.329,0,0,0,.41-.608A.259.259,0,0,0,36.139,250.373Z" transform="translate(-24.165 -247.841)" fill="#ac45f4"/>
      </g>
    </g>
  </g>
</svg>
