<svg id="withdraw" xmlns="http://www.w3.org/2000/svg" width="49.827" height="49.827" viewBox="0 0 49.827 49.827">
  <g id="Group_31" data-name="Group 31" transform="translate(0)">
    <g id="Group_30" data-name="Group 30">
      <path id="Path_30" data-name="Path 30" d="M182.413,273.824l-3.9,3.855V258.112a2.112,2.112,0,1,0-4.224,0V277.47l-3.69-3.647a2.112,2.112,0,0,0-2.969,3l4.392,4.34a6.321,6.321,0,0,0,8.97,0l4.392-4.34a2.112,2.112,0,0,0-2.969-3Z" transform="translate(-151.498 -233.208)" fill="#ac45f4"/>
      <path id="Path_31" data-name="Path 31" d="M334.587,276a2.112,2.112,0,0,0-2.112,2.112,4.229,4.229,0,0,1-4.224,4.224H318.112a2.112,2.112,0,1,0,0,4.224H328.25a8.458,8.458,0,0,0,8.449-8.449A2.112,2.112,0,0,0,334.587,276Z" transform="translate(-286.872 -249.695)" fill="#ac45f4"/>
      <path id="Path_32" data-name="Path 32" d="M171.493,97.353a2.111,2.111,0,0,0,2.919-.632,11.88,11.88,0,0,0,1.92-6.437c0-6.289-4.785-11.406-10.666-11.406S155,83.995,155,90.284a11.609,11.609,0,0,0,1.82,6.445,2.112,2.112,0,1,0,3.541-2.3,7.463,7.463,0,0,1-1.137-4.142c0-3.96,2.89-7.181,6.442-7.181s6.442,3.222,6.442,7.181a7.665,7.665,0,0,1-1.248,4.15A2.112,2.112,0,0,0,171.493,97.353Z" transform="translate(-140.753 -71.551)" fill="#ac45f4"/>
      <ellipse id="Ellipse_15" data-name="Ellipse 15" cx="2.18" cy="1.869" rx="2.18" ry="1.869" transform="translate(37.486 16.433)" fill="#ac45f4"/>
      <ellipse id="Ellipse_16" data-name="Ellipse 16" cx="2.18" cy="1.869" rx="2.18" ry="1.869" transform="translate(8.097 16.433)" fill="#ac45f4"/>
      <path id="Path_33" data-name="Path 33" d="M42.041,0H7.785A7.677,7.677,0,0,0,0,7.546V27.919a7.677,7.677,0,0,0,7.785,7.546h9.343a1.887,1.887,0,1,0,0-3.773H7.785a3.839,3.839,0,0,1-3.893-3.773V7.546A3.839,3.839,0,0,1,7.785,3.773H42.041a3.839,3.839,0,0,1,3.893,3.773V18.487a1.947,1.947,0,0,0,3.893,0V7.546A7.677,7.677,0,0,0,42.041,0Z" fill="#ac45f4"/>
    </g>
  </g>
</svg>
